<svg xmlns="http://www.w3.org/2000/svg" fill="none" viewBox="0 0 1084 327"><defs/><path fill="url(#a)" d="M508 217c4-1 127-9 160 23v593h-780V200c34-26 124 20 131 22-1-3 5-18 21-25 21-9 52 0 61 5 0-11 18-28 73-28s65 19 74 39c0 0 31-6 48-2 14 4 28 16 28 16 0-10 27-13 33-14 0-11 36-24 73-24 47 0 74 18 78 28z" opacity=".1"/><defs><linearGradient id="a" x1="161.3" x2="201.4" y1="226.8" y2="337.8" gradientUnits="userSpaceOnUse"><stop stop-color="#fff"/><stop offset="1" stop-color="#fff" stop-opacity="0"/></linearGradient></defs></svg>
