<svg xmlns="http://www.w3.org/2000/svg" fill="none" viewBox="0 0 1084 327"><defs/><path fill="url(#a)" d="M852 184c20 4 25 18 27 24 1-1 17-8 43-9 21 0 41 3 48 9 2-3 8-13 23-13 22 0 19 10 22 13 11-1 32-13 53-13 29 0 45 13 49 13 27-1 61-9 61-9v641H270V219c17 0 83-23 105-6 1-2 7-5 14-5l19 2c0-6 15-26 46-26 32 0 31 17 35 15l21-3c5-9 34-19 62-12 23 6 26 17 33 21 0 0 7-6 16-3 12 3 10 13 10 13 5-2 14-1 18 0-1-1-2-8 8-12 12-5 26-2 31 0 0-6 5-21 37-23 32-1 41 14 46 26 0 0 4-9 13-9 12 0 18 6 18 6 3-4 14-6 18-6 1-5 9-18 32-13z" opacity=".1"/><defs><linearGradient id="a" x1="498.5" x2="466.6" y1="180" y2="285.4" gradientUnits="userSpaceOnUse"><stop stop-color="#fff"/><stop offset="1" stop-color="#fff" stop-opacity="0"/></linearGradient></defs></svg>
