<svg xmlns="http://www.w3.org/2000/svg" fill="none" viewBox="0 0 1084 327"><defs/><path fill="url(#a)" d="M396 26c-4-1-71 11-92 28v586h851V19c-24 0-37 9-41 13-2-2-3-23-12-28-12-6-30-2-35-1 0-8-17-23-61-20-43 4-51 26-54 21-5-10-23-12-30-4-8-13-45-26-85-17-33 8-42 18-51 23 0 0-4-11-20-10-19 1-18 14-18 14-8-5-20-5-25 0 1-2-1-9-14-14-17-6-35 5-42 8 0-8-11-22-57-18-45 5-53 22-61 37 0 0-13-4-26-1-10 2-18 11-18 11-4-5-15-7-20-7-2-7-15-21-44-22-28-1-42 14-45 22z" opacity=".1"/><defs><linearGradient id="a" x1="758.2" x2="630.7" y1="32.2" y2="250.9" gradientUnits="userSpaceOnUse"><stop stop-color="#fff"/><stop offset="1" stop-color="#fff" stop-opacity="0"/></linearGradient></defs></svg>
