<svg xmlns="http://www.w3.org/2000/svg" width="175.383" height="46.8"><path fill="red" d="M11.51 26.36v10.69h3V9.16h-4.49c-4.4 0-8.11 2.93-8.11 8.78 0 4.17 1.64 6.43 4.1 7.68L.78 37.05h3.47l4.76-10.69zm0-2.49h-1.6c-2.62 0-4.76-1.45-4.76-5.93 0-4.64 2.34-6.24 4.76-6.24h1.6z"/><path d="M44.62 34.55h-1.56V17.39h-9.13v1.68c0 5.23-.2 11.31-1.99 15.48h-1.21v6.36h2.73v-3.86h8.43v3.86h2.73zm13.22 1.17l-.71-2.34c-.78.55-2.14 1.33-3.86 1.33-2.41 0-3.66-2.34-3.66-6.79h8.19v-1.67c0-6.67-2.15-9.13-5.42-9.13-4.18 0-5.93 4.6-5.93 10.92 0 6.05 2.5 9.28 6.55 9.28 1.95 0 3.59-.62 4.84-1.6zM25.97 17.39v8.35h-4.52v-8.35h-3.04v19.66h3.04v-8.81h4.52v8.81h3.01V17.39zm43.18 19.66h3.31l-5.58-10.41 4.88-9.25h-3.08l-4.72 9.09v-9.09h-3.04v19.66h3.04v-9.79zm10.45.27c1.79 0 3.04-.58 4.09-1.48l-.7-2.26c-.7.62-1.83 1.21-3.31 1.21-2.46 0-3.63-2.81-3.63-7.72 0-4.96 1.56-7.41 3.74-7.41 1.25 0 2.42.66 3.24 1.36l.43-2.89c-.86-.54-1.87-1.01-3.63-1.01-4.6 0-6.98 3.94-6.98 10.1 0 6.71 2.54 10.1 6.75 10.1zm-39.55-2.77h-5.22c1.64-4.17 1.83-10.21 1.83-14.35v-.35h3.39zm12.33-14.93c1.75 0 2.3 2.45 2.3 5.81h-5.03c.19-3.51.85-5.81 2.73-5.81zm50.93 17.43h1.95V9.16H93.05v27.89H95V10.76h8.31zm11.35.39c3.39 0 6.01-3.82 6.01-10.34 0-6.74-2.62-10.1-6.01-10.1-3.39 0-6.01 3.79-6.01 10.34 0 6.71 2.62 10.1 6.01 10.1zm0-1.48c-2.3 0-4.17-2.62-4.17-8.74 0-5.97 1.87-8.7 4.17-8.7s4.17 2.54 4.17 8.7c0 5.93-1.87 8.74-4.17 8.74zm17.67-17.05v-1.52h-8.31v19.66h1.79V18.91zm7.56 18.53c3.4 0 6.01-3.82 6.01-10.34 0-6.74-2.61-10.1-6.01-10.1-3.39 0-6 3.79-6 10.34 0 6.71 2.61 10.1 6 10.1zm0-1.48c-2.3 0-4.17-2.62-4.17-8.74 0-5.97 1.87-8.7 4.17-8.7s4.18 2.54 4.18 8.7c0 5.93-1.88 8.74-4.18 8.74zm11.74-7.02c.51-4.57.63-10.06.63-10.06h4.99v16.69h-7.49c1.01-1.17 1.52-3.36 1.87-6.63zm7.84 11.97h1.44v-5.34h-1.79V17.39h-8.5s-.08 6.28-.59 11.12c-.39 3.7-1.13 6.39-2.34 7.06h-.82v5.34h1.45l.23-3.86h10.69zm8.27-4.95c-1.87 0-3.08-1.6-3.08-4.37 0-3.43 1.56-4.91 4.8-4.91h2.1v5.42c-.7 2.1-1.99 3.86-3.82 3.86zm4.37 1.09h1.67c-.23-.74-.42-2.26-.42-3.63V22.7c0-3.9-1.84-5.7-5.07-5.7-2.23 0-3.87.98-4.65 1.99l.51 1.76c.94-1.37 2.46-2.15 4.14-2.15 2.14 0 3.27 1.29 3.27 4.29v2.46h-2.14c-4.25 0-6.56 2.18-6.56 6.4 0 3.58 1.84 5.69 4.49 5.69 1.95 0 3.35-1.17 4.29-3.04.12 1.4.31 2.14.47 2.65z"/></svg>